<svg width="1449" height="91" viewBox="0 0 1449 91" fill="none" xmlns="http://www.w3.org/2000/svg">
<path d="M90.56 91H0.320001V0.887993H17.472V77.688H90.56V91ZM251.238 91H191.718C171.238 91 163.43 82.168 163.43 69.24V22.648C163.43 9.71999 171.238 0.887993 191.718 0.887993H251.238C271.718 0.887993 279.526 9.71999 279.526 22.648V69.24C279.526 82.168 271.718 91 251.238 91ZM262.502 69.368V22.52C262.502 17.144 258.918 14.2 251.238 14.2H191.718C184.038 14.2 180.454 17.144 180.454 22.52V69.368C180.454 74.744 184.038 77.688 191.718 77.688H251.238C258.918 77.688 262.502 74.744 262.502 69.368ZM477.59 91H458.39L411.926 18.424L364.694 91H345.75L405.654 0.887993H418.07L477.59 91ZM632.505 91H549.945V0.887993H632.505C657.977 0.887993 665.785 9.71999 665.785 27.512V65.272C665.785 82.168 657.977 91 632.505 91ZM648.761 65.144V27.512C648.761 17.144 645.177 14.2 632.505 14.2H566.969V77.688H632.505C645.177 77.688 648.761 74.744 648.761 65.144ZM763.484 91H746.46V0.887993H763.484V91ZM964.116 91H955.796L859.668 20.856V91H844.82V0.887993H859.54L949.268 67.832V0.887993H964.116V91ZM1115.99 91H1076.18C1054.81 91 1044.06 84.472 1044.06 71.544V20.344C1044.06 7.41599 1054.81 0.887993 1076.18 0.887993H1146.71V14.2H1076.18C1066.07 14.2 1061.08 16.248 1061.08 20.344V71.544C1061.08 75.64 1066.07 77.688 1076.18 77.688H1115.99C1126.1 77.688 1131.1 75.768 1131.1 71.8V41.848H1148.12V71.8C1148.12 84.6 1137.37 91 1115.99 91ZM1247.28 91H1227.18V74.36H1247.28V91ZM1347.78 91H1327.68V74.36H1347.78V91ZM1448.28 91H1428.18V74.36H1448.28V91Z" fill="white"/>
</svg>
