<svg width="285" height="128" viewBox="0 0 285 128" fill="none" xmlns="http://www.w3.org/2000/svg">
<mask id="path-1-outside-1_2_19" maskUnits="userSpaceOnUse" x="-22" y="-22" width="329" height="188" fill="black">
<rect fill="white" x="-22" y="-22" width="329" height="188"/>
<path d="M48 128V32H0V9.625V0H128V16L112 32H80V128H48ZM140.75 128L172.75 96H220.75L252.75 64L220.75 32H172.75V80L140.75 112V33.625V0H236.75L284.75 48V80L236.75 128H140.75Z"/>
</mask>
<path d="M48 128V32H0V9.625V0H128V16L112 32H80V128H48ZM140.75 128L172.75 96H220.75L252.75 64L220.75 32H172.75V80L140.75 112V33.625V0H236.75L284.75 48V80L236.75 128H140.75Z" fill="url(#paint0_linear_2_19)"/>
<path d="M48 128H26V150H48V128ZM48 32H70V10H48V32ZM0 32H-22V54H0V32ZM0 0V-22H-22V0H0ZM128 0H150V-22H128V0ZM128 16L143.556 31.5563L150 25.1127V16H128ZM112 32V54H121.113L127.556 47.5563L112 32ZM80 32V10H58V32H80ZM80 128V150H102V128H80ZM70 128V32H26V128H70ZM48 10H0V54H48V10ZM22 32V9.625H-22V32H22ZM22 9.625V0H-22V9.625H22ZM0 22H128V-22H0V22ZM106 0V16H150V0H106ZM112.444 0.443651L96.4437 16.4437L127.556 47.5563L143.556 31.5563L112.444 0.443651ZM112 10H80V54H112V10ZM58 32V128H102V32H58ZM80 106H48V150H80V106ZM140.75 128L125.194 112.444L87.6373 150H140.75V128ZM172.75 96V74H163.637L157.194 80.4437L172.75 96ZM220.75 96V118H229.863L236.306 111.556L220.75 96ZM252.75 64L268.306 79.5563L283.863 64L268.306 48.4437L252.75 64ZM220.75 32L236.306 16.4437L229.863 10H220.75V32ZM172.75 32V10H150.75V32H172.75ZM172.75 80L188.306 95.5563L194.75 89.1127V80H172.75ZM140.75 112H118.75V165.113L156.306 127.556L140.75 112ZM140.75 0V-22H118.75V0H140.75ZM236.75 0L252.306 -15.5563L245.863 -22H236.75V0ZM284.75 48H306.75V38.8873L300.306 32.4437L284.75 48ZM284.75 80L300.306 95.5563L306.75 89.1127V80H284.75ZM236.75 128V150H245.863L252.306 143.556L236.75 128ZM156.306 143.556L188.306 111.556L157.194 80.4437L125.194 112.444L156.306 143.556ZM172.75 118H220.75V74H172.75V118ZM236.306 111.556L268.306 79.5563L237.194 48.4437L205.194 80.4437L236.306 111.556ZM268.306 48.4437L236.306 16.4437L205.194 47.5563L237.194 79.5563L268.306 48.4437ZM220.75 10H172.75V54H220.75V10ZM150.75 32V80H194.75V32H150.75ZM157.194 64.4437L125.194 96.4437L156.306 127.556L188.306 95.5563L157.194 64.4437ZM162.75 112V33.625H118.75V112H162.75ZM162.75 33.625V0H118.75V33.625H162.75ZM140.75 22H236.75V-22H140.75V22ZM221.194 15.5563L269.194 63.5563L300.306 32.4437L252.306 -15.5563L221.194 15.5563ZM262.75 48V80H306.75V48H262.75ZM269.194 64.4437L221.194 112.444L252.306 143.556L300.306 95.5563L269.194 64.4437ZM236.75 106H140.75V150H236.75V106Z" fill="#F5F5F5" mask="url(#path-1-outside-1_2_19)"/>
<defs>
<linearGradient id="paint0_linear_2_19" x1="0" y1="-96" x2="351.068" y2="93.8877" gradientUnits="userSpaceOnUse">
<stop stop-color="#95D8FF"/>
<stop offset="0.31" stop-color="#0087E9"/>
<stop offset="1" stop-color="#00E440"/>
</linearGradient>
</defs>
</svg>
