<svg width="1071" height="164" viewBox="0 0 1071 164" fill="none" xmlns="http://www.w3.org/2000/svg">
<g clip-path="url(#clip0_3_6)">
<path d="M64 160.5V64.5H16V42.125V32.5H144V48.5L128 64.5H96V160.5H64Z" fill="#0E6CF7"/>
<path d="M0 160.5L32 128.5H80L112 96.5L80 64.5H32V112.5L0 144.5V66.125V32.5H96L144 80.5V112.5L96 160.5H0Z" fill="#0E6CF7"/>
</g>
<path d="M298.875 162.5H275.6V57.5H211.025V39.3H361.7V57.5H298.875V162.5ZM496.836 162.5H415.461C387.461 162.5 376.786 150.425 376.786 132.75V39.3H400.061V132.925C400.061 140.275 404.961 144.3 415.461 144.3H491.936C502.436 144.3 507.336 140.275 507.336 132.925V39.3H530.611V132.75C530.611 150.425 524.836 162.5 496.836 162.5ZM665.698 162.5H552.823V39.3H665.698C700.523 39.3 711.198 51.375 711.198 75.7V127.325C711.198 150.425 700.523 162.5 665.698 162.5ZM687.923 127.15V75.7C687.923 61.525 683.023 57.5 665.698 57.5H576.098V144.3H665.698C683.023 144.3 687.923 140.275 687.923 127.15ZM852.296 162.5H770.921C742.921 162.5 732.246 150.425 732.246 132.75V69.05C732.246 51.375 742.921 39.3 770.921 39.3H852.296C880.296 39.3 890.971 51.375 890.971 69.05V132.75C890.971 150.425 880.296 162.5 852.296 162.5ZM867.696 132.925V68.875C867.696 61.525 862.796 57.5 852.296 57.5H770.921C760.421 57.5 755.521 61.525 755.521 68.875V132.925C755.521 140.275 760.421 144.3 770.921 144.3H852.296C862.796 144.3 867.696 140.275 867.696 132.925ZM1032.08 162.5H950.706C922.706 162.5 912.031 150.425 912.031 132.75V69.05C912.031 51.375 922.706 39.3 950.706 39.3H1032.08C1060.08 39.3 1070.76 51.375 1070.76 69.05V132.75C1070.76 150.425 1060.08 162.5 1032.08 162.5ZM1047.48 132.925V68.875C1047.48 61.525 1042.58 57.5 1032.08 57.5H950.706C940.206 57.5 935.306 61.525 935.306 68.875V132.925C935.306 140.275 940.206 144.3 950.706 144.3H1032.08C1042.58 144.3 1047.48 140.275 1047.48 132.925Z" fill="#161616"/>
<defs>
<clipPath id="clip0_3_6">
<rect width="975" height="161" fill="white"/>
</clipPath>
</defs>
</svg>
